<?xml version="1.0" encoding="UTF-8" standalone="no"?>
<!DOCTYPE svg PUBLIC "-//W3C//DTD SVG 1.1//EN"
 "http://www.w3.org/Graphics/SVG/1.1/DTD/svg11.dtd">
<!-- Generated by graphviz version 2.50.0 (0)
 -->
<!-- Pages: 1 -->
<svg width="1320pt" height="100pt"
 viewBox="0.00 0.00 1319.69 100.00" xmlns="http://www.w3.org/2000/svg" xmlns:xlink="http://www.w3.org/1999/xlink">
<g id="graph0" class="graph" transform="scale(1 1) rotate(0) translate(4 96)">
<polygon fill="white" stroke="transparent" points="-4,4 -4,-96 1315.69,-96 1315.69,4 -4,4"/>
<!-- 140215583784096 -->
<g id="node1" class="node">
<title>140215583784096</title>
<polygon fill="none" stroke="black" points="0,-55.5 0,-91.5 231,-91.5 231,-55.5 0,-55.5"/>
<text text-anchor="middle" x="12.5" y="-69.8" font-family="Times,serif" font-size="14.00">y</text>
<polyline fill="none" stroke="black" points="25,-55.5 25,-91.5 "/>
<text text-anchor="middle" x="76" y="-69.8" font-family="Times,serif" font-size="14.00">data 3.0000</text>
<polyline fill="none" stroke="black" points="127,-55.5 127,-91.5 "/>
<text text-anchor="middle" x="179" y="-69.8" font-family="Times,serif" font-size="14.00">grad 0.0004</text>
</g>
<!-- 140215583784384+ -->
<g id="node6" class="node">
<title>140215583784384+</title>
<ellipse fill="none" stroke="black" cx="294" cy="-65.5" rx="27" ry="18"/>
<text text-anchor="middle" x="294" y="-61.8" font-family="Times,serif" font-size="14.00">+</text>
</g>
<!-- 140215583784096&#45;&gt;140215583784384+ -->
<g id="edge8" class="edge">
<title>140215583784096&#45;&gt;140215583784384+</title>
<path fill="none" stroke="black" d="M231.27,-68.3C240.32,-67.89 248.97,-67.5 256.76,-67.14"/>
<polygon fill="black" stroke="black" points="257.01,-70.64 266.84,-66.69 256.69,-63.64 257.01,-70.64"/>
</g>
<!-- 140215583782560 -->
<g id="node2" class="node">
<title>140215583782560</title>
<polygon fill="none" stroke="black" points="0,-0.5 0,-36.5 231,-36.5 231,-0.5 0,-0.5"/>
<text text-anchor="middle" x="12.5" y="-14.8" font-family="Times,serif" font-size="14.00">x</text>
<polyline fill="none" stroke="black" points="25,-0.5 25,-36.5 "/>
<text text-anchor="middle" x="76" y="-14.8" font-family="Times,serif" font-size="14.00">data 2.0000</text>
<polyline fill="none" stroke="black" points="127,-0.5 127,-36.5 "/>
<text text-anchor="middle" x="179" y="-14.8" font-family="Times,serif" font-size="14.00">grad 1.0003</text>
</g>
<!-- 140215583782560&#45;&gt;140215583784384+ -->
<g id="edge5" class="edge">
<title>140215583782560&#45;&gt;140215583784384+</title>
<path fill="none" stroke="black" d="M196.79,-36.57C208.31,-39.41 219.98,-42.43 231,-45.5 240.44,-48.13 250.59,-51.27 259.9,-54.28"/>
<polygon fill="black" stroke="black" points="258.99,-57.66 269.58,-57.45 261.17,-51.01 258.99,-57.66"/>
</g>
<!-- 140215583784432* -->
<g id="node8" class="node">
<title>140215583784432*</title>
<ellipse fill="none" stroke="black" cx="1016.69" cy="-41.5" rx="27" ry="18"/>
<text text-anchor="middle" x="1016.69" y="-37.8" font-family="Times,serif" font-size="14.00">*</text>
</g>
<!-- 140215583782560&#45;&gt;140215583784432* -->
<g id="edge6" class="edge">
<title>140215583782560&#45;&gt;140215583784432*</title>
<path fill="none" stroke="black" d="M231.05,-18.5C300.48,-18.5 390.84,-18.5 471,-18.5 471,-18.5 471,-18.5 655.85,-18.5 774.74,-18.5 915.29,-31.16 979.92,-37.69"/>
<polygon fill="black" stroke="black" points="979.68,-41.19 989.99,-38.73 980.39,-34.23 979.68,-41.19"/>
</g>
<!-- 140215583784288 -->
<g id="node3" class="node">
<title>140215583784288</title>
<polygon fill="none" stroke="black" points="722.69,-47.5 722.69,-83.5 953.69,-83.5 953.69,-47.5 722.69,-47.5"/>
<text text-anchor="middle" x="735.19" y="-61.8" font-family="Times,serif" font-size="14.00">a</text>
<polyline fill="none" stroke="black" points="747.69,-47.5 747.69,-83.5 "/>
<text text-anchor="middle" x="798.69" y="-61.8" font-family="Times,serif" font-size="14.00">data 0.9999</text>
<polyline fill="none" stroke="black" points="849.69,-47.5 849.69,-83.5 "/>
<text text-anchor="middle" x="901.69" y="-61.8" font-family="Times,serif" font-size="14.00">grad 2.0000</text>
</g>
<!-- 140215583784288&#45;&gt;140215583784432* -->
<g id="edge4" class="edge">
<title>140215583784288&#45;&gt;140215583784432*</title>
<path fill="none" stroke="black" d="M953.96,-49.89C963.3,-48.62 972.21,-47.41 980.2,-46.33"/>
<polygon fill="black" stroke="black" points="980.7,-49.79 990.14,-44.98 979.76,-42.85 980.7,-49.79"/>
</g>
<!-- 140215583784288tanh -->
<g id="node4" class="node">
<title>140215583784288tanh</title>
<ellipse fill="none" stroke="black" cx="654.85" cy="-65.5" rx="31.7" ry="18"/>
<text text-anchor="middle" x="654.85" y="-61.8" font-family="Times,serif" font-size="14.00">tanh</text>
</g>
<!-- 140215583784288tanh&#45;&gt;140215583784288 -->
<g id="edge1" class="edge">
<title>140215583784288tanh&#45;&gt;140215583784288</title>
<path fill="none" stroke="black" d="M687.02,-65.5C694.61,-65.5 703.19,-65.5 712.31,-65.5"/>
<polygon fill="black" stroke="black" points="712.4,-69 722.4,-65.5 712.4,-62 712.4,-69"/>
</g>
<!-- 140215583784384 -->
<g id="node5" class="node">
<title>140215583784384</title>
<polygon fill="none" stroke="black" points="357,-47.5 357,-83.5 587,-83.5 587,-47.5 357,-47.5"/>
<text text-anchor="middle" x="369" y="-61.8" font-family="Times,serif" font-size="14.00">z</text>
<polyline fill="none" stroke="black" points="381,-47.5 381,-83.5 "/>
<text text-anchor="middle" x="432" y="-61.8" font-family="Times,serif" font-size="14.00">data 5.0000</text>
<polyline fill="none" stroke="black" points="483,-47.5 483,-83.5 "/>
<text text-anchor="middle" x="535" y="-61.8" font-family="Times,serif" font-size="14.00">grad 0.0004</text>
</g>
<!-- 140215583784384&#45;&gt;140215583784288tanh -->
<g id="edge7" class="edge">
<title>140215583784384&#45;&gt;140215583784288tanh</title>
<path fill="none" stroke="black" d="M587.02,-65.5C596.04,-65.5 604.73,-65.5 612.69,-65.5"/>
<polygon fill="black" stroke="black" points="612.69,-69 622.69,-65.5 612.69,-62 612.69,-69"/>
</g>
<!-- 140215583784384+&#45;&gt;140215583784384 -->
<g id="edge2" class="edge">
<title>140215583784384+&#45;&gt;140215583784384</title>
<path fill="none" stroke="black" d="M321.35,-65.5C328.74,-65.5 337.3,-65.5 346.51,-65.5"/>
<polygon fill="black" stroke="black" points="346.74,-69 356.74,-65.5 346.74,-62 346.74,-69"/>
</g>
<!-- 140215583784432 -->
<g id="node7" class="node">
<title>140215583784432</title>
<polygon fill="none" stroke="black" points="1079.69,-23.5 1079.69,-59.5 1311.69,-59.5 1311.69,-23.5 1079.69,-23.5"/>
<text text-anchor="middle" x="1092.69" y="-37.8" font-family="Times,serif" font-size="14.00">b</text>
<polyline fill="none" stroke="black" points="1105.69,-23.5 1105.69,-59.5 "/>
<text text-anchor="middle" x="1156.69" y="-37.8" font-family="Times,serif" font-size="14.00">data 1.9998</text>
<polyline fill="none" stroke="black" points="1207.69,-23.5 1207.69,-59.5 "/>
<text text-anchor="middle" x="1259.69" y="-37.8" font-family="Times,serif" font-size="14.00">grad 1.0000</text>
</g>
<!-- 140215583784432*&#45;&gt;140215583784432 -->
<g id="edge3" class="edge">
<title>140215583784432*&#45;&gt;140215583784432</title>
<path fill="none" stroke="black" d="M1043.81,-41.5C1051.23,-41.5 1059.83,-41.5 1069.1,-41.5"/>
<polygon fill="black" stroke="black" points="1069.39,-45 1079.39,-41.5 1069.39,-38 1069.39,-45"/>
</g>
</g>
</svg>
