<?xml version="1.0" encoding="UTF-8" standalone="no"?>
<!DOCTYPE svg PUBLIC "-//W3C//DTD SVG 1.1//EN"
 "http://www.w3.org/Graphics/SVG/1.1/DTD/svg11.dtd">
<!-- Generated by graphviz version 2.50.0 (0)
 -->
<!-- Pages: 1 -->
<svg width="1856pt" height="210pt"
 viewBox="0.00 0.00 1855.69 210.00" xmlns="http://www.w3.org/2000/svg" xmlns:xlink="http://www.w3.org/1999/xlink">
<g id="graph0" class="graph" transform="scale(1 1) rotate(0) translate(4 206)">
<polygon fill="white" stroke="transparent" points="-4,4 -4,-206 1851.69,-206 1851.69,4 -4,4"/>
<!-- 140612532204640 -->
<g id="node1" class="node">
<title>140612532204640</title>
<polygon fill="none" stroke="black" points="2.5,-165.5 2.5,-201.5 246.5,-201.5 246.5,-165.5 2.5,-165.5"/>
<text text-anchor="middle" x="21.5" y="-179.8" font-family="Times,serif" font-size="14.00">w2</text>
<polyline fill="none" stroke="black" points="40.5,-165.5 40.5,-201.5 "/>
<text text-anchor="middle" x="91.5" y="-179.8" font-family="Times,serif" font-size="14.00">data 1.0000</text>
<polyline fill="none" stroke="black" points="142.5,-165.5 142.5,-201.5 "/>
<text text-anchor="middle" x="194.5" y="-179.8" font-family="Times,serif" font-size="14.00">grad 0.0000</text>
</g>
<!-- 140612532204880* -->
<g id="node6" class="node">
<title>140612532204880*</title>
<ellipse fill="none" stroke="black" cx="312" cy="-128.5" rx="27" ry="18"/>
<text text-anchor="middle" x="312" y="-124.8" font-family="Times,serif" font-size="14.00">*</text>
</g>
<!-- 140612532204640&#45;&gt;140612532204880* -->
<g id="edge9" class="edge">
<title>140612532204640&#45;&gt;140612532204880*</title>
<path fill="none" stroke="black" d="M218.13,-165.46C228.63,-162.77 239.1,-159.78 249,-156.5 259.71,-152.96 271.05,-148.16 281.07,-143.54"/>
<polygon fill="black" stroke="black" points="282.67,-146.66 290.2,-139.21 279.67,-140.33 282.67,-146.66"/>
</g>
<!-- 140612532204688 -->
<g id="node2" class="node">
<title>140612532204688</title>
<polygon fill="none" stroke="black" points="827.5,-27.5 827.5,-63.5 1059.5,-63.5 1059.5,-27.5 827.5,-27.5"/>
<text text-anchor="middle" x="840.5" y="-41.8" font-family="Times,serif" font-size="14.00">b</text>
<polyline fill="none" stroke="black" points="853.5,-27.5 853.5,-63.5 "/>
<text text-anchor="middle" x="904.5" y="-41.8" font-family="Times,serif" font-size="14.00">data 2.5000</text>
<polyline fill="none" stroke="black" points="955.5,-27.5 955.5,-63.5 "/>
<text text-anchor="middle" x="1007.5" y="-41.8" font-family="Times,serif" font-size="14.00">grad 0.0036</text>
</g>
<!-- 140612532205456+ -->
<g id="node14" class="node">
<title>140612532205456+</title>
<ellipse fill="none" stroke="black" cx="1176" cy="-72.5" rx="27" ry="18"/>
<text text-anchor="middle" x="1176" y="-68.8" font-family="Times,serif" font-size="14.00">+</text>
</g>
<!-- 140612532204688&#45;&gt;140612532205456+ -->
<g id="edge6" class="edge">
<title>140612532204688&#45;&gt;140612532205456+</title>
<path fill="none" stroke="black" d="M1059.75,-59C1088.57,-62.38 1117.4,-65.75 1139.01,-68.28"/>
<polygon fill="black" stroke="black" points="1138.67,-71.77 1149.01,-69.46 1139.48,-64.82 1138.67,-71.77"/>
</g>
<!-- 140612532204256 -->
<g id="node3" class="node">
<title>140612532204256</title>
<polygon fill="none" stroke="black" points="4.5,-110.5 4.5,-146.5 244.5,-146.5 244.5,-110.5 4.5,-110.5"/>
<text text-anchor="middle" x="21.5" y="-124.8" font-family="Times,serif" font-size="14.00">x2</text>
<polyline fill="none" stroke="black" points="38.5,-110.5 38.5,-146.5 "/>
<text text-anchor="middle" x="89.5" y="-124.8" font-family="Times,serif" font-size="14.00">data 0.0000</text>
<polyline fill="none" stroke="black" points="140.5,-110.5 140.5,-146.5 "/>
<text text-anchor="middle" x="192.5" y="-124.8" font-family="Times,serif" font-size="14.00">grad 0.0036</text>
</g>
<!-- 140612532204256&#45;&gt;140612532204880* -->
<g id="edge12" class="edge">
<title>140612532204256&#45;&gt;140612532204880*</title>
<path fill="none" stroke="black" d="M244.55,-128.5C255.31,-128.5 265.54,-128.5 274.62,-128.5"/>
<polygon fill="black" stroke="black" points="274.7,-132 284.7,-128.5 274.7,-125 274.7,-132"/>
</g>
<!-- 140612532204832 -->
<g id="node4" class="node">
<title>140612532204832</title>
<polygon fill="none" stroke="black" points="0,-55.5 0,-91.5 249,-91.5 249,-55.5 0,-55.5"/>
<text text-anchor="middle" x="19" y="-69.8" font-family="Times,serif" font-size="14.00">w1</text>
<polyline fill="none" stroke="black" points="38,-55.5 38,-91.5 "/>
<text text-anchor="middle" x="91.5" y="-69.8" font-family="Times,serif" font-size="14.00">data &#45;3.0000</text>
<polyline fill="none" stroke="black" points="145,-55.5 145,-91.5 "/>
<text text-anchor="middle" x="197" y="-69.8" font-family="Times,serif" font-size="14.00">grad 0.0073</text>
</g>
<!-- 140612532204928* -->
<g id="node12" class="node">
<title>140612532204928*</title>
<ellipse fill="none" stroke="black" cx="312" cy="-73.5" rx="27" ry="18"/>
<text text-anchor="middle" x="312" y="-69.8" font-family="Times,serif" font-size="14.00">*</text>
</g>
<!-- 140612532204832&#45;&gt;140612532204928* -->
<g id="edge8" class="edge">
<title>140612532204832&#45;&gt;140612532204928*</title>
<path fill="none" stroke="black" d="M249.23,-73.5C258.37,-73.5 267.05,-73.5 274.87,-73.5"/>
<polygon fill="black" stroke="black" points="274.95,-77 284.95,-73.5 274.95,-70 274.95,-77"/>
</g>
<!-- 140612532204880 -->
<g id="node5" class="node">
<title>140612532204880</title>
<polygon fill="none" stroke="black" points="377.5,-110.5 377.5,-146.5 645.5,-146.5 645.5,-110.5 377.5,-110.5"/>
<text text-anchor="middle" x="408.5" y="-124.8" font-family="Times,serif" font-size="14.00">x2*w2</text>
<polyline fill="none" stroke="black" points="439.5,-110.5 439.5,-146.5 "/>
<text text-anchor="middle" x="490.5" y="-124.8" font-family="Times,serif" font-size="14.00">data 0.0000</text>
<polyline fill="none" stroke="black" points="541.5,-110.5 541.5,-146.5 "/>
<text text-anchor="middle" x="593.5" y="-124.8" font-family="Times,serif" font-size="14.00">grad 0.0036</text>
</g>
<!-- 140612532204400+ -->
<g id="node10" class="node">
<title>140612532204400+</title>
<ellipse fill="none" stroke="black" cx="711" cy="-100.5" rx="27" ry="18"/>
<text text-anchor="middle" x="711" y="-96.8" font-family="Times,serif" font-size="14.00">+</text>
</g>
<!-- 140612532204880&#45;&gt;140612532204400+ -->
<g id="edge14" class="edge">
<title>140612532204880&#45;&gt;140612532204400+</title>
<path fill="none" stroke="black" d="M639.53,-110.49C652.09,-108.71 663.99,-107.02 674.3,-105.56"/>
<polygon fill="black" stroke="black" points="675.03,-108.99 684.44,-104.12 674.05,-102.06 675.03,-108.99"/>
</g>
<!-- 140612532204880*&#45;&gt;140612532204880 -->
<g id="edge1" class="edge">
<title>140612532204880*&#45;&gt;140612532204880</title>
<path fill="none" stroke="black" d="M339.23,-128.5C347.26,-128.5 356.72,-128.5 366.99,-128.5"/>
<polygon fill="black" stroke="black" points="367.08,-132 377.08,-128.5 367.08,-125 367.08,-132"/>
</g>
<!-- 140612532205408 -->
<g id="node7" class="node">
<title>140612532205408</title>
<polygon fill="none" stroke="black" points="1611.69,-54.5 1611.69,-90.5 1847.69,-90.5 1847.69,-54.5 1611.69,-54.5"/>
<text text-anchor="middle" x="1624.19" y="-68.8" font-family="Times,serif" font-size="14.00">o</text>
<polyline fill="none" stroke="black" points="1636.69,-54.5 1636.69,-90.5 "/>
<text text-anchor="middle" x="1690.19" y="-68.8" font-family="Times,serif" font-size="14.00">data &#45;0.9982</text>
<polyline fill="none" stroke="black" points="1743.69,-54.5 1743.69,-90.5 "/>
<text text-anchor="middle" x="1795.69" y="-68.8" font-family="Times,serif" font-size="14.00">grad 1.0000</text>
</g>
<!-- 140612532205408tanh -->
<g id="node8" class="node">
<title>140612532205408tanh</title>
<ellipse fill="none" stroke="black" cx="1543.85" cy="-72.5" rx="31.7" ry="18"/>
<text text-anchor="middle" x="1543.85" y="-68.8" font-family="Times,serif" font-size="14.00">tanh</text>
</g>
<!-- 140612532205408tanh&#45;&gt;140612532205408 -->
<g id="edge2" class="edge">
<title>140612532205408tanh&#45;&gt;140612532205408</title>
<path fill="none" stroke="black" d="M1576.03,-72.5C1583.63,-72.5 1592.23,-72.5 1601.39,-72.5"/>
<polygon fill="black" stroke="black" points="1601.51,-76 1611.51,-72.5 1601.51,-69 1601.51,-76"/>
</g>
<!-- 140612532204400 -->
<g id="node9" class="node">
<title>140612532204400</title>
<polygon fill="none" stroke="black" points="774,-82.5 774,-118.5 1113,-118.5 1113,-82.5 774,-82.5"/>
<text text-anchor="middle" x="838" y="-96.8" font-family="Times,serif" font-size="14.00">x1*w1 + x2*w2</text>
<polyline fill="none" stroke="black" points="902,-82.5 902,-118.5 "/>
<text text-anchor="middle" x="955.5" y="-96.8" font-family="Times,serif" font-size="14.00">data &#45;6.0000</text>
<polyline fill="none" stroke="black" points="1009,-82.5 1009,-118.5 "/>
<text text-anchor="middle" x="1061" y="-96.8" font-family="Times,serif" font-size="14.00">grad 0.0036</text>
</g>
<!-- 140612532204400&#45;&gt;140612532205456+ -->
<g id="edge7" class="edge">
<title>140612532204400&#45;&gt;140612532205456+</title>
<path fill="none" stroke="black" d="M1092.76,-82.49C1109.86,-80.41 1125.9,-78.46 1139.2,-76.85"/>
<polygon fill="black" stroke="black" points="1139.74,-80.31 1149.24,-75.63 1138.89,-73.36 1139.74,-80.31"/>
</g>
<!-- 140612532204400+&#45;&gt;140612532204400 -->
<g id="edge3" class="edge">
<title>140612532204400+&#45;&gt;140612532204400</title>
<path fill="none" stroke="black" d="M738.44,-100.5C745.81,-100.5 754.42,-100.5 763.84,-100.5"/>
<polygon fill="black" stroke="black" points="763.94,-104 773.94,-100.5 763.94,-97 763.94,-104"/>
</g>
<!-- 140612532204928 -->
<g id="node11" class="node">
<title>140612532204928</title>
<polygon fill="none" stroke="black" points="375,-55.5 375,-91.5 648,-91.5 648,-55.5 375,-55.5"/>
<text text-anchor="middle" x="406" y="-69.8" font-family="Times,serif" font-size="14.00">x1*w1</text>
<polyline fill="none" stroke="black" points="437,-55.5 437,-91.5 "/>
<text text-anchor="middle" x="490.5" y="-69.8" font-family="Times,serif" font-size="14.00">data &#45;6.0000</text>
<polyline fill="none" stroke="black" points="544,-55.5 544,-91.5 "/>
<text text-anchor="middle" x="596" y="-69.8" font-family="Times,serif" font-size="14.00">grad 0.0036</text>
</g>
<!-- 140612532204928&#45;&gt;140612532204400+ -->
<g id="edge13" class="edge">
<title>140612532204928&#45;&gt;140612532204400+</title>
<path fill="none" stroke="black" d="M644.24,-91.51C655.12,-93 665.4,-94.4 674.45,-95.64"/>
<polygon fill="black" stroke="black" points="674.11,-99.13 684.49,-97.01 675.05,-92.19 674.11,-99.13"/>
</g>
<!-- 140612532204928*&#45;&gt;140612532204928 -->
<g id="edge4" class="edge">
<title>140612532204928*&#45;&gt;140612532204928</title>
<path fill="none" stroke="black" d="M339.23,-73.5C346.7,-73.5 355.41,-73.5 364.87,-73.5"/>
<polygon fill="black" stroke="black" points="364.98,-77 374.98,-73.5 364.98,-70 364.98,-77"/>
</g>
<!-- 140612532205456 -->
<g id="node13" class="node">
<title>140612532205456</title>
<polygon fill="none" stroke="black" points="1239,-54.5 1239,-90.5 1476,-90.5 1476,-54.5 1239,-54.5"/>
<text text-anchor="middle" x="1252" y="-68.8" font-family="Times,serif" font-size="14.00">n</text>
<polyline fill="none" stroke="black" points="1265,-54.5 1265,-90.5 "/>
<text text-anchor="middle" x="1318.5" y="-68.8" font-family="Times,serif" font-size="14.00">data &#45;3.5000</text>
<polyline fill="none" stroke="black" points="1372,-54.5 1372,-90.5 "/>
<text text-anchor="middle" x="1424" y="-68.8" font-family="Times,serif" font-size="14.00">grad 0.0036</text>
</g>
<!-- 140612532205456&#45;&gt;140612532205408tanh -->
<g id="edge11" class="edge">
<title>140612532205456&#45;&gt;140612532205408tanh</title>
<path fill="none" stroke="black" d="M1476.03,-72.5C1485.09,-72.5 1493.79,-72.5 1501.75,-72.5"/>
<polygon fill="black" stroke="black" points="1501.75,-76 1511.75,-72.5 1501.75,-69 1501.75,-76"/>
</g>
<!-- 140612532205456+&#45;&gt;140612532205456 -->
<g id="edge5" class="edge">
<title>140612532205456+&#45;&gt;140612532205456</title>
<path fill="none" stroke="black" d="M1203.1,-72.5C1210.61,-72.5 1219.33,-72.5 1228.75,-72.5"/>
<polygon fill="black" stroke="black" points="1228.78,-76 1238.78,-72.5 1228.78,-69 1228.78,-76"/>
</g>
<!-- 140612532204496 -->
<g id="node15" class="node">
<title>140612532204496</title>
<polygon fill="none" stroke="black" points="2.5,-0.5 2.5,-36.5 246.5,-36.5 246.5,-0.5 2.5,-0.5"/>
<text text-anchor="middle" x="19.5" y="-14.8" font-family="Times,serif" font-size="14.00">x1</text>
<polyline fill="none" stroke="black" points="36.5,-0.5 36.5,-36.5 "/>
<text text-anchor="middle" x="87.5" y="-14.8" font-family="Times,serif" font-size="14.00">data 2.0000</text>
<polyline fill="none" stroke="black" points="138.5,-0.5 138.5,-36.5 "/>
<text text-anchor="middle" x="192.5" y="-14.8" font-family="Times,serif" font-size="14.00">grad &#45;0.0109</text>
</g>
<!-- 140612532204496&#45;&gt;140612532204928* -->
<g id="edge10" class="edge">
<title>140612532204496&#45;&gt;140612532204928*</title>
<path fill="none" stroke="black" d="M214.42,-36.55C226.15,-39.54 237.93,-42.87 249,-46.5 259.46,-49.93 270.57,-54.47 280.46,-58.84"/>
<polygon fill="black" stroke="black" points="279.31,-62.17 289.87,-63.12 282.21,-55.79 279.31,-62.17"/>
</g>
</g>
</svg>
